<svg aria-hidden="true" style="position: absolute; width: 0; height: 0; overflow: hidden;" version="1.1" xmlns="http://www.w3.org/2000/svg" xmlns:xlink="http://www.w3.org/1999/xlink">
<defs>
<symbol id="icon-calendar" viewBox="0 0 32 32">
<path d="M7 0c0.552 0 1 0.448 1 1v0 1h16v-1c0-0.552 0.448-1 1-1s1 0.448 1 1v0 1h2c2.209 0 4 1.791 4 4v0 22c0 2.209-1.791 4-4 4v0h-24c-2.209 0-4-1.791-4-4v0-22c0-2.209 1.791-4 4-4v0h2v-1c0-0.552 0.448-1 1-1v0zM4 4c-1.105 0-2 0.895-2 2v0 22c0 1.105 0.895 2 2 2v0h24c1.105 0 2-0.895 2-2v0-22c0-1.105-0.895-2-2-2v0h-24z"></path>
<path d="M5 8c0-0.552 0.448-1 1-1v0h20c0.552 0 1 0.448 1 1v0 2c0 0.552-0.448 1-1 1v0h-20c-0.552 0-1-0.448-1-1v0-2zM22 15c0-0.552 0.448-1 1-1v0h2c0.552 0 1 0.448 1 1v0 2c0 0.552-0.448 1-1 1v0h-2c-0.552 0-1-0.448-1-1v0-2zM16 15c0-0.552 0.448-1 1-1v0h2c0.552 0 1 0.448 1 1v0 2c0 0.552-0.448 1-1 1v0h-2c-0.552 0-1-0.448-1-1v0-2zM6 21c0-0.552 0.448-1 1-1v0h2c0.552 0 1 0.448 1 1v0 2c0 0.552-0.448 1-1 1v0h-2c-0.552 0-1-0.448-1-1v0-2zM12 21c0-0.552 0.448-1 1-1v0h2c0.552 0 1 0.448 1 1v0 2c0 0.552-0.448 1-1 1v0h-2c-0.552 0-1-0.448-1-1v0-2z"></path>
</symbol>
<symbol id="icon-car" viewBox="0 0 32 32">
<path d="M8 18c0 1.105-0.895 2-2 2s-2-0.895-2-2v0c0-1.105 0.895-2 2-2s2 0.895 2 2v0zM28 18c0 1.105-0.895 2-2 2s-2-0.895-2-2v0c0-1.105 0.895-2 2-2s2 0.895 2 2v0zM12 16c-1.105 0-2 0.895-2 2s0.895 2 2 2v0h8c1.105 0 2-0.895 2-2s-0.895-2-2-2v0h-8zM9.724 8.552l-1.912 3.828c-0.064 0.13-0.102 0.283-0.102 0.445 0 0.563 0.457 1.020 1.020 1.020 0.027 0 0.053-0.001 0.080-0.003l-0.003 0c1.82-0.146 4.7-0.34 7.194-0.34s5.376 0.194 7.194 0.34c0.023 0.002 0.049 0.003 0.076 0.003 0.563 0 1.020-0.457 1.020-1.020 0-0.162-0.038-0.315-0.105-0.451l0.003 0.006-1.912-3.826c-0.167-0.331-0.505-0.554-0.894-0.554h-10.764c-0.389 0-0.726 0.222-0.891 0.546l-0.003 0.006z"></path>
<path d="M5.040 7.030c0.785-1.797 2.546-3.030 4.596-3.030 0.002 0 0.003 0 0.005 0h12.724c2 0 3.808 1.192 4.596 3.030l1.584 3.696c0.15 0.35 0.42 0.638 0.76 0.808 1 0.5 1.71 1.43 1.93 2.524l0.67 3.358c0.066 0.322 0.1 0.65 0.098 0.98v0.826c0 1.628-0.78 3.086-2 3.994v3.784c0 0.552-0.448 1-1 1v0h-4c-0.552 0-1-0.448-1-1v0-2.676c-2.584 0.096-5.49 0.176-8 0.176s-5.416-0.080-8-0.176v2.676c0 0.552-0.448 1-1 1v0h-4c-0.552 0-1-0.448-1-1v0-3.784c-1.22-0.908-2-2.366-2-3.994v-0.826c0-0.347 0.036-0.686 0.104-1.012l-0.006 0.032 0.67-3.36c0.22-1.092 0.93-2.024 1.928-2.522 0.342-0.172 0.609-0.454 0.758-0.798l0.004-0.010 1.584-3.696h-0.004zM9.64 6c-1.23 0-2.288 0.741-2.75 1.801l-0.008 0.019-1.584 3.694c-0.344 0.792-0.94 1.421-1.685 1.799l-0.021 0.009c-0.441 0.222-0.761 0.63-0.858 1.118l-0.002 0.010-0.672 3.358c-0.038 0.177-0.059 0.38-0.060 0.587v0.826c0 1.592 1.24 2.896 2.816 2.968 3.11 0.14 7.572 0.31 11.184 0.31s8.074-0.168 11.184-0.31c1.572-0.079 2.816-1.372 2.816-2.956 0-0.004 0-0.008-0-0.012v0.001-0.826c0-0.198-0.020-0.394-0.060-0.588l-0.67-3.36c-0.1-0.497-0.419-0.904-0.851-1.122l-0.009-0.004c-0.766-0.387-1.362-1.016-1.697-1.785l-0.009-0.023-1.584-3.696c-0.471-1.078-1.528-1.818-2.757-1.818-0.001 0-0.002 0-0.003 0h-12.72z"></path>
</symbol>
<symbol id="icon-check-circle" viewBox="0 0 32 32">
<path d="M16 30c-7.732 0-14-6.268-14-14s6.268-14 14-14v0c7.732 0 14 6.268 14 14s-6.268 14-14 14v0zM16 32c8.837 0 16.001-7.164 16.001-16.001s-7.164-16.001-16.001-16.001v0c-8.837 0-16.001 7.164-16.001 16.001s7.164 16.001 16.001 16.001v0z"></path>
<path d="M21.94 9.94l-0.040 0.044-6.946 8.85-4.186-4.188c-0.267-0.249-0.627-0.403-1.023-0.403-0.828 0-1.5 0.672-1.5 1.5 0 0.396 0.153 0.755 0.403 1.023l-0.001-0.001 5.292 5.294c0.271 0.271 0.646 0.438 1.060 0.438 0.433 0 0.824-0.184 1.097-0.477l0.001-0.001 7.984-9.98c0.256-0.269 0.414-0.633 0.414-1.035 0-0.828-0.672-1.5-1.5-1.5-0.412 0-0.785 0.166-1.056 0.435l0-0z"></path>
</symbol>
<symbol id="icon-down-arrow" viewBox="0 0 32 32">
<path d="M2.294 8.294c0.181-0.181 0.431-0.294 0.708-0.294s0.527 0.112 0.708 0.294l11.29 11.294 11.292-11.294c0.178-0.165 0.418-0.267 0.681-0.267 0.553 0 1.002 0.449 1.002 1.002 0 0.263-0.101 0.503-0.267 0.681l0.001-0.001-12 12c-0.181 0.181-0.431 0.294-0.708 0.294s-0.527-0.112-0.708-0.294l-12-12c-0.181-0.181-0.294-0.431-0.294-0.708s0.112-0.527 0.294-0.708l0-0z"></path>
</symbol>
<symbol id="icon-fuel-pump" viewBox="0 0 32 32">
<path d="M6 5c0-0.552 0.448-1 1-1v0h10c0.552 0 1 0.448 1 1v0 10c0 0.552-0.448 1-1 1v0h-10c-0.552 0-1-0.448-1-1v0-10z"></path>
<path d="M2 4c0-2.209 1.791-4 4-4v0h12c2.209 0 4 1.791 4 4v0 16c2.209 0 4 1.791 4 4v0 1c0 0.552 0.448 1 1 1s1-0.448 1-1v0-9h-1c-0.552 0-1-0.448-1-1v0-6.25c0-0.552 0.448-1 1-1v0h2.99c-0.022-0.952-0.106-1.788-0.402-2.444-0.163-0.387-0.436-0.701-0.78-0.911l-0.008-0.005c-0.368-0.22-0.928-0.39-1.8-0.39-0.552 0-1-0.448-1-1s0.448-1 1-1v0c1.128-0.002 2.070 0.22 2.824 0.672 0.766 0.456 1.268 1.102 1.588 1.814 0.59 1.31 0.588 2.93 0.588 4.162v6.35c0 0.001 0 0.001 0 0.002 0 0.552-0.448 1-1 1 0 0 0 0 0 0h-1v9c0 1.657-1.343 3-3 3s-3-1.343-3-3v0-1c0-1.105-0.895-2-2-2v0 8h1c0.552 0 1 0.448 1 1s-0.448 1-1 1v0h-22c-0.552 0-1-0.448-1-1s0.448-1 1-1v0h1v-26zM20 4c0-1.105-0.895-2-2-2v0h-12c-1.105 0-2 0.895-2 2v0 26h16v-26z"></path>
</symbol>
<symbol id="icon-gear" viewBox="0 0 32 32">
<path d="M16 9.508c-3.585 0-6.492 2.907-6.492 6.492s2.907 6.492 6.492 6.492v0c3.585 0 6.492-2.907 6.492-6.492s-2.907-6.492-6.492-6.492v0zM11.508 16c0-2.481 2.011-4.492 4.492-4.492s4.492 2.011 4.492 4.492v0c0 2.481-2.011 4.492-4.492 4.492s-4.492-2.011-4.492-4.492v0z"></path>
<path d="M19.592 2.686c-1.054-3.58-6.13-3.58-7.184 0l-0.188 0.638c-0.22 0.73-0.886 1.253-1.675 1.253-0.306 0-0.594-0.079-0.844-0.217l0.009 0.005-0.584-0.32c-3.28-1.784-6.866 1.804-5.080 5.082l0.318 0.584c0.134 0.241 0.213 0.529 0.213 0.835 0 0.788-0.523 1.455-1.24 1.672l-0.012 0.003-0.638 0.188c-3.58 1.054-3.58 6.13 0 7.184l0.638 0.188c0.73 0.22 1.253 0.886 1.253 1.675 0 0.306-0.079 0.594-0.217 0.844l0.005-0.009-0.32 0.584c-1.784 3.28 1.802 6.868 5.082 5.080l0.584-0.318c0.241-0.134 0.529-0.213 0.835-0.213 0.788 0 1.455 0.523 1.672 1.24l0.003 0.012 0.188 0.638c1.054 3.58 6.13 3.58 7.184 0l0.188-0.638c0.22-0.73 0.886-1.253 1.675-1.253 0.306 0 0.594 0.079 0.844 0.217l-0.009-0.005 0.584 0.32c3.28 1.786 6.868-1.804 5.080-5.082l-0.318-0.584c-0.134-0.241-0.213-0.529-0.213-0.835 0-0.788 0.523-1.455 1.24-1.672l0.012-0.003 0.638-0.188c3.58-1.054 3.58-6.13 0-7.184l-0.638-0.188c-0.73-0.22-1.253-0.886-1.253-1.675 0-0.306 0.079-0.594 0.217-0.844l-0.005 0.009 0.32-0.584c1.786-3.28-1.804-6.866-5.082-5.080l-0.584 0.318c-0.241 0.134-0.529 0.213-0.835 0.213-0.788 0-1.455-0.523-1.672-1.24l-0.003-0.012-0.188-0.638zM14.326 3.252c0.492-1.67 2.856-1.67 3.348 0l0.188 0.638c0.472 1.566 1.902 2.687 3.593 2.687 0.657 0 1.275-0.169 1.812-0.467l-0.019 0.010 0.582-0.32c1.528-0.83 3.2 0.84 2.368 2.37l-0.318 0.584c-0.287 0.518-0.457 1.135-0.457 1.792 0 1.692 1.122 3.121 2.662 3.585l0.026 0.007 0.636 0.188c1.67 0.492 1.67 2.856 0 3.348l-0.638 0.188c-1.566 0.472-2.687 1.902-2.687 3.593 0 0.657 0.169 1.275 0.467 1.812l-0.010-0.019 0.32 0.582c0.83 1.528-0.84 3.2-2.37 2.368l-0.582-0.318c-0.518-0.288-1.136-0.458-1.794-0.458-1.692 0-3.122 1.122-3.586 2.663l-0.007 0.026-0.188 0.636c-0.492 1.67-2.856 1.67-3.348 0l-0.188-0.638c-0.473-1.566-1.902-2.686-3.593-2.686-0.657 0-1.274 0.169-1.81 0.466l0.019-0.010-0.584 0.32c-1.528 0.83-3.2-0.84-2.368-2.37l0.318-0.582c0.288-0.518 0.457-1.136 0.457-1.793 0-1.692-1.121-3.122-2.66-3.588l-0.027-0.007-0.638-0.188c-1.67-0.492-1.67-2.856 0-3.348l0.638-0.188c1.565-0.473 2.685-1.902 2.685-3.593 0-0.656-0.169-1.272-0.465-1.809l0.010 0.019-0.32-0.584c-0.83-1.528 0.84-3.2 2.37-2.368l0.584 0.318c0.517 0.287 1.134 0.456 1.791 0.456 1.691 0 3.12-1.12 3.586-2.659l0.007-0.027 0.188-0.638z"></path>
</symbol>
<symbol id="icon-like-active" viewBox="0 0 32 32">
<path d="M16 2.628c8.876-9.124 31.068 6.842 0 27.372-31.068-20.528-8.876-36.496 0-27.372z"></path>
</symbol>
<symbol id="icon-like-default" viewBox="0 0 32 32">
<path fill="#f2f4f7" style="fill: var(--color1, #f2f4f7)" d="M16 5.496l-1.434-1.474c-3.366-3.46-9.54-2.266-11.766 2.084-1.046 2.046-1.282 5 0.628 8.77 1.84 3.63 5.668 7.978 12.572 12.714 6.904-4.736 10.73-9.084 12.572-12.714 1.91-3.772 1.676-6.724 0.628-8.77-2.228-4.35-8.4-5.546-11.766-2.086l-1.434 1.476zM16 30c-30.666-20.264-9.442-36.080-0.352-27.714 0.12 0.11 0.238 0.224 0.352 0.342 0.112-0.118 0.227-0.229 0.346-0.335l0.006-0.005c9.088-8.372 30.314 7.446-0.352 27.712z"></path>
</symbol>
<symbol id="icon-location" viewBox="0 0 26 32">
<path d="M20.331 17.879c-1.045 2.125-2.466 4.241-3.919 6.14-1.464 1.893-2.909 3.569-4.435 5.166l0.023-0.024c-1.503-1.573-2.947-3.248-4.303-4.996l-0.109-0.146c-1.451-1.899-2.871-4.015-3.921-6.14-1.060-2.146-1.668-4.156-1.668-5.879 0-5.523 4.478-10.001 10.001-10.001s10.001 4.478 10.001 10.001v0c0 1.724-0.61 3.733-1.668 5.879zM12.002 32s12-11.371 12-20c0-6.627-5.373-12-12-12s-12 5.373-12 12v0c-0.002 8.627 11.998 20 11.998 20z"></path>
<path d="M12 16c-2.209 0-4-1.791-4-4s1.791-4 4-4v0c2.209 0 4 1.791 4 4s-1.791 4-4 4v0zM12 18.001c3.314 0 6.001-2.687 6.001-6.001s-2.687-6.001-6.001-6.001v0c-3.314 0-6.001 2.687-6.001 6.001s2.687 6.001 6.001 6.001v0z"></path>
</symbol>
<symbol id="icon-logo" viewBox="0 0 208 32">
<path fill="#3470ff" style="fill: var(--color2, #3470ff)" d="M202.142 15.29c-1.366 0-2.614 0.080-3.744 0.236-1.381 0.212-2.614 0.541-3.791 0.988l0.126-0.042v15.054h-6.858v-22.382h5.084l1.024 2.64c1.366-1.102 2.706-1.89 4.020-2.364 1.215-0.449 2.619-0.708 4.083-0.708 0.019 0 0.038 0 0.057 0h-0.003v6.58zM184.596 31.29c-0.84 0.184-1.588 0.316-2.246 0.394-0.63 0.080-1.38 0.12-2.246 0.12-2.522 0-4.178-0.816-4.966-2.444-0.954 0.726-2.046 1.349-3.216 1.819l-0.094 0.033c-1.044 0.399-2.252 0.631-3.514 0.631-0.040 0-0.079-0-0.118-0.001l0.006 0c-0.031 0.001-0.069 0.001-0.106 0.001-1.127 0-2.19-0.277-3.123-0.767l0.037 0.018c-0.913-0.472-1.659-1.155-2.192-1.987l-0.014-0.023c-0.494-0.772-0.788-1.715-0.788-2.725 0-0.012 0-0.024 0-0.037v0.002c0-1.68 0.42-3.008 1.26-3.98 0.868-0.998 2.024-1.786 3.468-2.364 1.446-0.604 3.64-1.326 6.58-2.168l1.184-0.354v-0.158c0-2.416-1.104-3.626-3.31-3.626-1.078 0-2.234 0.238-3.468 0.71-1.236 0.474-2.654 1.236-4.256 2.286l-1.3-4.73c1.555-0.919 3.354-1.733 5.244-2.349l0.195-0.055c1.736-0.55 3.732-0.866 5.802-0.866 0.038 0 0.076 0 0.114 0l-0.006-0c2.522 0 4.454 0.684 5.794 2.050 1.366 1.366 2.050 3.704 2.050 7.014v7.488c0 0.578 0.118 0.998 0.354 1.26 0.236 0.238 0.618 0.356 1.142 0.356 0.5 0 1-0.066 1.5-0.198l0.234 4.65zM168.872 25.418c0 0.526 0.132 0.908 0.394 1.144 0.29 0.236 0.736 0.354 1.34 0.354 1.104 0 2.404-0.472 3.902-1.42v-4.176l-0.592 0.198c-1.97 0.708-3.31 1.34-4.020 1.89-0.682 0.526-1.024 1.196-1.024 2.010zM150.364 32c-3.258 0-6.016-0.63-8.276-1.892-2.26-1.286-3.954-2.98-5.084-5.084-1.043-1.978-1.655-4.323-1.655-6.81 0-0.044 0-0.088 0.001-0.132l-0 0.007c0-2.47 0.578-4.754 1.734-6.856 1.182-2.102 2.93-3.784 5.24-5.044 2.312-1.262 5.098-1.892 8.356-1.892 3.048 0 5.728 0.59 8.040 1.772l-1.42 4.966c-0.863-0.455-1.871-0.858-2.923-1.155l-0.111-0.027c-1.050-0.316-2.246-0.472-3.586-0.472-1.708 0-3.192 0.394-4.454 1.18-1.227 0.764-2.197 1.836-2.816 3.11l-0.020 0.044c-0.632 1.314-0.946 2.786-0.946 4.414 0 2.574 0.682 4.69 2.048 6.344 1.366 1.63 3.324 2.444 5.872 2.444 2.18 0 4.532-0.54 7.054-1.616l1.34 4.848c-1.076 0.552-2.364 0.998-3.86 1.34-1.5 0.34-3.010 0.512-4.534 0.512z"></path>
<path fill="#101828" style="fill: var(--color3, #101828)" d="M123.566 0h6.86v31.528h-6.86v-31.528zM120.288 31.29c-0.84 0.184-1.59 0.316-2.246 0.394-0.632 0.080-1.38 0.12-2.246 0.12-2.524 0-4.18-0.816-4.966-2.444-0.954 0.726-2.046 1.349-3.216 1.819l-0.094 0.033c-1.044 0.399-2.252 0.631-3.514 0.631-0.040 0-0.079-0-0.118-0.001l0.006 0c-0.032 0.001-0.069 0.001-0.106 0.001-1.127 0-2.189-0.277-3.123-0.767l0.037 0.018c-0.914-0.472-1.661-1.155-2.195-1.987l-0.013-0.023c-0.494-0.772-0.788-1.715-0.788-2.725 0-0.012 0-0.024 0-0.037v0.002c0-1.68 0.42-3.008 1.26-3.98 0.868-0.998 2.024-1.786 3.47-2.364 1.444-0.604 3.64-1.326 6.58-2.168l1.182-0.354v-0.158c0-2.416-1.102-3.626-3.31-3.626-1.076 0-2.232 0.238-3.468 0.71-1.234 0.474-2.652 1.236-4.256 2.286l-1.3-4.73c1.786-1.024 3.6-1.826 5.44-2.404 1.736-0.55 3.732-0.866 5.802-0.866 0.038 0 0.076 0 0.114 0l-0.006-0c2.522 0 4.454 0.684 5.794 2.050 1.366 1.366 2.048 3.704 2.048 7.014v7.488c0 0.578 0.12 0.998 0.356 1.26 0.236 0.238 0.616 0.356 1.14 0.356 0.5 0 1-0.066 1.5-0.198l0.236 4.65zM104.564 25.418c0 0.526 0.132 0.908 0.394 1.144 0.288 0.236 0.736 0.354 1.34 0.354 1.102 0 2.404-0.472 3.9-1.42v-4.176l-0.59 0.198c-1.97 0.708-3.31 1.34-4.020 1.89-0.682 0.526-1.024 1.196-1.024 2.010zM95.248 30.068c-0.813 0.559-1.758 1.004-2.772 1.284l-0.066 0.016c-0.943 0.27-2.028 0.429-3.148 0.436l-0.004 0c-2.784 0-4.86-0.606-6.226-1.814-1.366-1.234-2.050-2.994-2.050-5.28v-10.72h-3.35v-2.876l4.218-1.696 1.892-6.028h4.098v5.75h6.304v4.848h-6.304v9.064c0 1.392 0.222 2.378 0.67 2.956 0.446 0.578 1.116 0.866 2.010 0.866 1.156 0 2.378-0.34 3.664-1.024l1.064 4.216zM66.38 8.67c2.916 0 4.926 0.774 6.030 2.326 1.13 1.55 1.694 3.782 1.694 6.7v13.832h-6.856v-12.968c0-1.84-0.224-3.114-0.67-3.824-0.42-0.708-1.248-1.064-2.484-1.064-1.34 0-2.706 0.448-4.098 1.34v16.514h-6.856v-22.386h5.082l0.71 1.854c2.574-1.552 5.058-2.326 7.448-2.326zM34.056 21.596c0.132 1.866 0.592 3.244 1.38 4.138s1.996 1.34 3.626 1.34c0.027 0 0.059 0 0.091 0 1.174 0 2.295-0.232 3.318-0.652l-0.058 0.021c1.050-0.448 2.246-1.104 3.586-1.972l1.852 4.336c-1.392 1.13-2.772 1.944-4.138 2.444s-2.93 0.748-4.69 0.748c-2.6 0-4.78-0.5-6.54-1.498-1.762-1.024-3.076-2.404-3.942-4.138-0.84-1.76-1.26-3.756-1.26-5.99 0-3.546 0.996-6.384 2.994-8.512 1.996-2.128 4.912-3.192 8.748-3.192 3.048 0 5.36 0.828 6.936 2.482 1.602 1.63 2.418 3.954 2.444 6.976 0 1.182-0.172 2.34-0.512 3.468h-13.834zM41.742 17.142c0.026-0.156 0.040-0.366 0.040-0.63-0.028-1.076-0.316-1.892-0.868-2.444-0.552-0.578-1.314-0.866-2.286-0.866-2.312 0-3.756 1.314-4.334 3.94h7.448zM10.876 21.674h-3.782v9.854h-7.094v-26.8h10.72c3.836 0 6.634 0.658 8.394 1.972 1.76 1.286 2.64 3.322 2.64 6.108 0 3.626-1.328 6.056-3.98 7.29l7.526 11.43h-8.196l-6.228-9.854zM7.094 16.748h3.626c1.392 0 2.39-0.288 2.994-0.866 0.63-0.58 0.946-1.472 0.946-2.68 0-1.26-0.302-2.168-0.906-2.72s-1.616-0.826-3.034-0.826h-3.626v7.092z"></path>
</symbol>
<symbol id="icon-up-arrow" viewBox="0 0 32 32">
<path d="M14.294 8.294c0.181-0.181 0.431-0.294 0.708-0.294s0.527 0.112 0.708 0.294l12 12c0.181 0.181 0.293 0.431 0.293 0.708 0 0.553-0.448 1.001-1.001 1.001-0.276 0-0.527-0.112-0.708-0.293v0l-11.294-11.294-11.292 11.294c-0.181 0.181-0.431 0.293-0.708 0.293-0.553 0-1.001-0.448-1.001-1.001 0-0.276 0.112-0.527 0.293-0.708l12-12z"></path>
</symbol>
<symbol id="icon-back-arrow" viewBox="0 0 32 32">
<path d="M8.294 17.706c-0.181-0.181-0.294-0.431-0.294-0.708s0.112-0.527 0.294-0.708l12-12c0.181-0.181 0.431-0.293 0.708-0.293 0.553 0 1.001 0.448 1.001 1.001 0 0.277-0.112 0.527-0.293 0.708v0l-11.294 11.294 11.294 11.292c0.181 0.181 0.293 0.431 0.293 0.708 0 0.553-0.448 1.001-1.001 1.001-0.276 0-0.527-0.112-0.708-0.293l-12-12z"></path>
</symbol>
<symbol id="icon-menu" viewBox="0 0 33 32">
<path stroke-linejoin="round" stroke-linecap="round" stroke-miterlimit="4" stroke-width="2.2857" d="M4.5 11.334h24M4.5 20.666h24"></path>
</symbol>
<symbol id="icon-Clear" viewBox="0 0 32 32">
<path d="M30.469 2.305c-0.12-0.119-0.286-0.192-0.468-0.192-0.186 0-0.354 0.076-0.475 0.198l-0 0-5.876 5.956c-2.296-2.153-5.713-4.176-10.112-0.508-0.509 0.289-4.748 2.693-7.12 3.916-1.547 0.799-3.92 1.748-4.013 1.789-0.575 0.309-0.933 0.847-1.039 1.552-0.348 2.316 2.112 6.279 6.925 11.159 2.429 2.463 4.917 3.711 7.397 3.711 2.103 0 4.188-0.941 5.872-2.649 2.745-2.784 3.459-7.039 3.591-8.029 3.525-4.335 1.556-7.713-0.564-9.996l5.884-5.964c0.119-0.12 0.193-0.286 0.193-0.469 0-0.185-0.076-0.353-0.198-0.474l-0-0zM20.612 26.301c-1.452 1.473-3.153 2.252-4.921 2.252-1.363 0-2.751-0.467-4.148-1.389 0.313-0.205 0.864-0.576 1.267-0.889 0.936-0.731 2.455-2.211 2.519-2.273 0.124-0.122 0.2-0.291 0.2-0.477 0-0.182-0.072-0.346-0.19-0.467l0 0c-0.121-0.123-0.29-0.2-0.477-0.2-0.181 0-0.346 0.072-0.466 0.189l0-0c-0.015 0.015-1.528 1.491-2.407 2.175-0.413 0.323-0.996 0.708-1.26 0.881l-0.327 0.207c-0.387-0.323-0.773-0.68-1.16-1.072-1.652-1.673-2.893-3.1-3.825-4.308 0.825-0.318 1.457-0.597 2.076-0.9l-0.157 0.069c1.303-0.651 3.493-2.072 3.585-2.132 0.184-0.121 0.304-0.326 0.304-0.559 0-0.368-0.299-0.667-0.667-0.667-0.135 0-0.261 0.040-0.366 0.109l0.003-0.002c-0.023 0.015-2.22 1.441-3.456 2.057-0.538 0.269-1.245 0.575-1.967 0.848l-0.175 0.058c-1.928-2.78-1.979-4.143-1.909-4.599 0.056-0.376 0.228-0.508 0.284-0.544 0.099-0.040 2.456-0.983 4.061-1.811 2.073-1.069 5.549-3.027 6.775-3.72l10.007 10.031c-0.164 1.080-0.875 4.773-3.199 7.128zM24.457 17.935l-9.541-9.565c2.833-2.104 5.265-1.704 8.251 1.291 2.988 2.996 3.388 5.436 1.289 8.275z"></path>
</symbol>
<symbol id="icon-Search" viewBox="0 0 32 32">
<path d="M30.471 29.508l-6.611-6.588c1.817-2.097 2.767-5.081 2.839-8.943-0.14-8.089-4.643-12.573-12.687-12.625-8.148 0.052-12.679 4.719-12.679 12.625 0 8.065 4.417 12.6 12.687 12.649 3.828-0.023 6.797-0.948 8.899-2.765l6.612 6.591c0.121 0.12 0.287 0.194 0.471 0.194s0.35-0.074 0.471-0.194l-0 0c0.12-0.12 0.194-0.287 0.194-0.47 0-0.185-0.075-0.352-0.197-0.473l-0-0zM14.020 25.293c-7.496-0.044-11.209-3.743-11.353-11.304 0.139-7.559 3.853-11.256 11.345-11.304 7.404 0.048 11.224 3.855 11.353 11.291-0.139 7.571-3.853 11.272-11.345 11.316z"></path>
</symbol>
</defs>
</svg>
